<svg width="301" height="132" viewBox="0 0 301 132" fill="none" xmlns="http://www.w3.org/2000/svg">
<g id="Group 40">
<path id="Shadow" d="M15.2344 66.5C8.67188 65.3 2.34375 71 0 74V177H300V2C296.25 14.4 284.375 24.5 278.906 28C277.93 25 274.453 20.3 268.359 25.5C262.266 30.7 245.508 36.3333 237.891 38.5C235.742 33.3333 230.039 24.5 224.414 30.5C217.383 38 204.492 44 202.734 41C200.977 38 195.117 28 187.5 34C179.883 40 169.922 46.5 162.891 46.5C155.859 46.5 151.758 39.5 148.242 35.5C144.727 31.5 141.797 39.5 138.867 42.5C135.938 45.5 134.766 46.5 132.422 44C130.078 41.5 129.492 42 127.148 44C124.805 46 120.117 50.5 110.156 56.5C100.195 62.5 99.0234 50.5 93.75 46.5C88.4766 42.5 79.1016 49.5 71.4844 54.5C63.8672 59.5 62.6953 59 57.4219 60C52.1484 61 49.2188 55.5 45.1172 54.5C41.0156 53.5 37.5 59.5 32.8125 66.5C28.125 73.5 23.4375 68 15.2344 66.5Z" fill="url(#paint0_linear_1_472)"/>
<path id="Graph" d="M2 73.5C4.34783 70.5 8.92609 65.3 15.5 66.5C23.7174 68 28.413 73.5 33.1087 66.5C37.8043 59.5 41.3261 53.5 45.4348 54.5C49.5435 55.5 52.4783 61 57.7609 60C63.0435 59 64.2174 59.5 71.8478 54.5C79.4783 49.5 88.8696 42.5 94.1522 46.5C99.4348 50.5 100.609 62.5 110.587 56.5C120.565 50.5 125.261 46 127.609 44C129.957 42 130.543 41.5 132.891 44C135.239 46.5 136.413 45.5 139.348 42.5C142.283 39.5 145.217 31.5 148.739 35.5C152.261 39.5 156.37 46.5 163.413 46.5C170.457 46.5 180.435 40 188.065 34C195.696 28 201.565 38 203.326 41C205.087 44 218 38 225.043 30.5C230.678 24.5 236.391 33.3333 238.543 38.5C246.174 36.3333 262.961 30.7 269.065 25.5C275.17 20.3 278.652 25 279.63 28C285.109 24.5 296.065 15 299 2" stroke="#EDF2F7" stroke-width="3" stroke-linecap="round" stroke-linejoin="round"/>
</g>
<defs>
<linearGradient id="paint0_linear_1_472" x1="150" y1="4.5" x2="150" y2="111" gradientUnits="userSpaceOnUse">
<stop stop-color="#E9E3FF"/>
<stop offset="1" stop-color="#E9E3FF" stop-opacity="0"/>
</linearGradient>
</defs>
</svg>
